<?xml version="1.0" standalone="no"?>
<!DOCTYPE svg PUBLIC "-//W3C//DTD SVG 20010904//EN"
 "http://www.w3.org/TR/2001/REC-SVG-20010904/DTD/svg10.dtd">
<svg version="1.0" xmlns="http://www.w3.org/2000/svg"
 width="213.000000pt" height="213.000000pt" viewBox="0 0 213.000000 213.000000"
 preserveAspectRatio="xMidYMid meet">
<metadata>
Created by potrace 1.11, written by Peter Selinger 2001-2013
</metadata>
<g transform="translate(0.000000,213.000000) scale(0.100000,-0.100000)"
fill="#000000" stroke="none">
<path d="M1140 2104 c-6 -14 -10 -30 -10 -35 0 -5 -8 -9 -17 -9 -79 0 -276
-81 -361 -149 -111 -88 -130 -141 -134 -362 -1 -103 -5 -136 -14 -132 -46 17
-114 -104 -114 -202 0 -67 23 -167 46 -202 18 -28 69 -31 96 -6 14 13 18 13
19 2 0 -8 4 -81 8 -164 6 -116 5 -155 -6 -175 -7 -14 -13 -30 -13 -36 0 -18
-48 -116 -75 -152 -13 -19 -49 -64 -80 -102 -50 -62 -62 -70 -138 -100 -45
-18 -118 -51 -162 -74 -44 -23 -104 -51 -132 -63 l-53 -22 0 -60 0 -61 376 0
c354 0 376 1 371 18 -3 9 -26 64 -51 121 -26 57 -44 106 -41 109 3 3 5 2 5 -2
0 -3 16 10 35 30 31 31 34 40 29 72 -3 24 0 47 9 65 9 18 13 45 10 75 l-4 47
107 -110 c58 -60 164 -169 235 -241 71 -73 134 -144 140 -158 12 -26 13 -27
108 -24 l95 3 14 50 c8 28 30 92 49 144 32 87 41 133 42 219 1 21 6 32 16 32
19 0 20 -90 4 -205 -9 -65 -8 -82 6 -111 9 -19 19 -57 22 -84 l6 -50 273 0
274 0 0 1065 0 1065 -490 0 -490 0 -10 -26z m105 -884 c3 -5 -1 -10 -10 -10
-9 0 -13 5 -10 10 3 6 8 10 10 10 2 0 7 -4 10 -10z"/>
<path d="M1504 143 c-4 -10 -19 -43 -35 -74 -16 -31 -29 -60 -29 -63 0 -3 30
-6 66 -6 l65 0 -7 48 c-12 88 -45 140 -60 95z"/>
<path d="M1070 122 c-29 -19 -140 -101 -154 -114 -6 -4 22 -8 61 -8 69 0 71 1
97 35 27 35 47 105 30 104 -5 0 -20 -8 -34 -17z"/>
</g>
</svg>
